<svg width="20" height="16" viewBox="0 0 20 16" fill="none" xmlns="http://www.w3.org/2000/svg">
<path d="M19.71 9.34953C19.617 9.2558 19.5064 9.18141 19.3846 9.13064C19.2627 9.07987 19.132 9.05373 19 9.05373C18.868 9.05373 18.7373 9.07987 18.6154 9.13064C18.4936 9.18141 18.383 9.2558 18.29 9.34953L15.37 12.2695V4.26953C15.37 3.20867 14.9486 2.19125 14.1984 1.4411C13.4483 0.690958 12.4309 0.269531 11.37 0.269531H1C0.734784 0.269531 0.48043 0.374888 0.292893 0.562425C0.105357 0.749961 0 1.00431 0 1.26953C0 1.53475 0.105357 1.7891 0.292893 1.97664C0.48043 2.16417 0.734784 2.26953 1 2.26953H11.37C11.9004 2.26953 12.4091 2.48024 12.7842 2.85532C13.1593 3.23039 13.37 3.7391 13.37 4.26953V12.2695L10.45 9.34953C10.263 9.15725 10.0073 9.04712 9.73914 9.04337C9.47097 9.03962 9.21228 9.14255 9.02 9.32953C8.82772 9.51651 8.71759 9.77221 8.71384 10.0404C8.71009 10.3086 8.81302 10.5672 9 10.7595L13.62 15.3895C13.7169 15.4808 13.8285 15.5552 13.95 15.6095C14.0697 15.6624 14.1991 15.6898 14.33 15.6898C14.4609 15.6898 14.5903 15.6624 14.71 15.6095C14.8336 15.559 14.9458 15.4842 15.04 15.3895L19.67 10.7595C19.8617 10.5775 19.9735 10.327 19.981 10.0628C19.9885 9.79857 19.891 9.54213 19.71 9.34953Z" fill="black"/>
</svg>
